<svg version="1.2" xmlns="http://www.w3.org/2000/svg" viewBox="0 0 512 512" width="512" height="512"><style>.a{fill:#522490}.b{fill:#e6e6e6}</style><path fill-rule="evenodd" class="a" d="m75.6 25.6h232.4l-14.5 25.1c-3.1 5.2-1.3 12 4 15l22.2 16.5q-0.1 0.4-0.1 0.8-0.1 0.4-0.2 0.9-0.2 1.9-0.4 3.8-0.1 0.4-0.1 0.7-0.2 1.7-0.3 3.4 0 0.2 0 0.3 0 0.1 0 0.3 0 0.4-0.1 0.7 0 2 0 3.9-0.1 0.3-0.1 0.5 0 0.3 0 0.6 0 0.2 0 0.4 0 0.3 0 0.5 0.1 0.8 0.1 1.6 0 1 0.1 2 0 0.9 0.1 1.7 0 0.2 0 0.3 0 0.4 0.1 0.8 0 0.6 0.1 1.1 0.1 1.3 0.2 2.5 0 0 0 0 0.3 1.8 0.6 3.6 0 0.1 0 0.2l-22.2 16.5c-5.3 3-7.1 9.8-4 15l18.3 31.8c3.1 5.3 9.8 7.1 15.1 4.1l25.3-11q0.3 0.2 0.6 0.4 0 0.1 0.1 0.1 0 0 0 0 0.4 0.3 0.8 0.6 0.7 0.6 1.3 1.1 0.4 0.3 0.8 0.5 0.5 0.4 1 0.8 0.1 0 0.1 0.1 0.2 0.2 0.5 0.3 0.6 0.5 1.2 0.9 0 0 0.1 0 0.2 0.2 0.5 0.3 2 1.5 4.2 2.8 0.4 0.2 0.8 0.4 2.7 1.6 5.5 3.1 0.1 0 0.2 0.1 4.3 2.1 8.9 3.8l3.1 27.5c0 6.1 5 11 11 11h36.8c6.1 0 11-4.9 11-11l3.2-27.5q0.2-0.1 0.4-0.2 0.3-0.1 0.5-0.1 1.5-0.6 3-1.3 0.3-0.1 0.6-0.2 1.4-0.6 2.7-1.3 0.1 0 0.2-0.1 0 0 0.1 0 0.1-0.1 0.2-0.1 0.6-0.3 1.1-0.5 1.1-0.6 2.2-1.2 0.8-0.4 1.6-0.8 0.4-0.3 0.8-0.5 0.2-0.1 0.3-0.2 0.1 0 0.1 0 0.2-0.1 0.3-0.2 1.9-1.1 3.7-2.3 0.1 0 0.2-0.1 0.3-0.2 0.6-0.4 1.6-1 3.1-2.1 0.1-0.1 0.3-0.2 1.7-1.2 3.3-2.5 0.2-0.2 0.4-0.4 0.4-0.3 0.8-0.6l16 6.9v260.3c0 27.6-22.4 50-50 50h-360.8c-27.6 0-50-22.4-50-50v-360.8c0-27.6 22.4-50 50-50zm276.7 0.2l-0.6-0.2h0.8q-0.1 0.1-0.2 0.2zm59 110c-21.1 0-38.3-17.1-38.3-38.3 0-21.2 17.2-38.3 38.3-38.3 21.2 0 38.4 17.1 38.4 38.3 0 21.2-17.2 38.3-38.4 38.3z"/><path class="b" d="m152.9 419v-39.1h15.9q8.8 0 15.8-2.5 7-2.5 12-7 4.9-4.4 7.5-10.4 2.7-6.1 2.7-13.3 0-7.7-2.7-14-2.6-6.3-7.5-10.8-5-4.5-12-7-7-2.5-15.8-2.5h-36.4v106.6zm15.9-55.8h-15.9v-34.1h15.9q4.4 0 7.6 1.4 3.2 1.3 5.4 3.8 2.1 2.4 3.1 5.6 1.1 3.2 1.1 7 0 3.2-1.1 6.2-1 2.9-3.1 5.2-2.2 2.3-5.4 3.6-3.2 1.3-7.6 1.3zm51.7-50.8v106.6h28.7q7.1 0 13.3-1.8 6.3-1.7 11.5-5 4.5-2.8 8.2-6.9 3.7-4.2 6.5-9.1 3-5.5 4.6-12.1 1.6-6.6 1.6-14v-8.7q0-7.7-1.8-14.5-1.7-6.9-4.8-12.5-2.7-4.6-6.4-8.5-3.6-3.9-8.2-6.7-5.3-3.3-11.7-5-6.5-1.8-13.8-1.8zm20.7 90v-73.3h6.9q3.7 0 6.8 0.8 3.3 0.8 5.9 2.4 3.4 2 6 5.3 2.6 3.2 4.3 7.3 1.3 3.4 1.9 7.6 0.8 4.1 0.8 8.7v8.9q0 5-0.8 9.2-0.6 4.2-1.9 7.6-1.7 4-3.9 7-2.2 2.9-5 4.8-2.7 1.8-6 2.8-3.3 0.9-7.1 0.9zm91.7-27.6h45.7v-16.7h-45.7v-29h51.4v-16.7h-72.1v106.6h20.7z"/></svg>